<svg width="436" height="419" viewBox="0 0 436 419" fill="none" xmlns="http://www.w3.org/2000/svg">
<g opacity="0.9">
<g clip-path="url(#clip0)">
<path d="M1.19299 228.274C7.13339 173.098 34.9553 119.1 79.5357 76.258C172.375 -12.9083 310.04 -25.7662 386.394 47.6879C462.802 121.117 449.449 253.362 356.637 342.555C312.057 385.397 255.868 412.134 198.453 417.843C190.796 418.603 183.248 418.995 175.809 418.995C126.432 418.995 82.2879 402.367 49.7791 371.125C12.3926 335.223 -4.8837 284.472 1.19299 228.274ZM137.06 273.552C167.47 251.241 200.442 242.415 236.248 232.988C326.39 209.236 371.161 136.96 381.625 52.2453C356.228 81.6796 337.481 115.304 306.307 139.946C273.09 166.186 236.521 175.744 196.355 186.926C108.175 211.515 64.5484 283.163 54.5205 366.569C82.0426 334.778 102.235 299.111 137.06 273.552Z" fill="#493228"/>
</g>
</g>
<defs>
<clipPath id="clip0">
<rect width="436" height="419" transform="matrix(-1 0 0 1 436 0)" fill="white"/>
</clipPath>
</defs>
</svg>
