<svg width="356" height="380" viewBox="0 0 356 380" fill="none" xmlns="http://www.w3.org/2000/svg">
<g clip-path="url(#clip0)">
<path d="M-22.9602 207.028C-17.7828 156.987 6.46564 108.015 45.3201 69.1608C126.235 -11.7061 246.219 -23.3672 312.765 43.2499C379.359 109.844 367.722 229.78 286.831 310.671C247.976 349.526 199.004 373.774 148.964 378.952C142.29 379.64 135.711 379.997 129.228 379.997C86.1933 379.997 47.7188 364.915 19.3854 336.582C-13.1991 304.021 -28.2564 257.994 -22.9602 207.028ZM95.4557 248.091C121.96 227.856 150.697 219.852 181.904 211.303C260.468 189.762 299.489 124.213 308.609 47.3831C286.474 74.0777 270.135 104.572 242.965 126.921C214.014 150.718 182.142 159.387 147.135 169.528C70.281 191.829 32.2578 256.808 23.5179 332.45C47.5051 303.618 65.1036 271.271 95.4557 248.091Z" fill="#493228"/>
</g>
<defs>
<clipPath id="clip0">
<rect width="380" height="380" transform="matrix(-1 0 0 1 356 0)" fill="white"/>
</clipPath>
</defs>
</svg>
