<svg width="336" height="353" viewBox="0 0 336 353" fill="none" xmlns="http://www.w3.org/2000/svg">
<g clip-path="url(#clip0)">
<path d="M334.993 192.317C329.979 145.832 306.496 100.34 268.869 64.2461C190.509 -10.875 74.3146 -21.7075 9.86951 40.1762C-54.6216 102.039 -43.3518 213.453 34.9852 288.597C72.6127 324.69 120.038 347.216 168.498 352.025C174.961 352.665 181.332 352.996 187.611 352.996C229.287 352.996 266.546 338.987 293.985 312.666C325.54 282.419 340.122 239.663 334.993 192.317ZM220.317 230.463C194.649 211.666 166.819 204.231 136.598 196.288C60.5148 176.278 22.7263 115.386 13.8945 44.0158C35.3302 68.8137 51.1539 97.1415 77.4656 117.902C105.502 140.008 136.368 148.061 170.269 157.482C244.696 178.198 281.519 238.56 289.983 308.828C266.753 282.045 249.71 251.995 220.317 230.463Z" fill="#493228"/>
</g>
<defs>
<clipPath id="clip0">
<rect x="-32" width="368" height="353" fill="white"/>
</clipPath>
</defs>
</svg>
