<svg width="587" height="685" viewBox="0 0 587 685" fill="none" xmlns="http://www.w3.org/2000/svg">
<g opacity="0.04">
<g clip-path="url(#clip0)">
<path d="M683.126 373.194C673.793 282.989 630.082 194.711 560.041 124.67C414.181 -21.1027 197.895 -42.1234 77.9364 77.9627C-42.1082 198.007 -21.1304 414.207 124.687 560.025C194.727 630.065 283.006 673.776 373.21 683.109C385.24 684.351 397.099 684.993 408.787 684.993C486.362 684.993 555.717 657.807 606.792 606.733C665.53 548.038 692.673 465.068 683.126 373.194ZM469.665 447.215C421.887 410.74 370.085 396.312 313.83 380.9C172.208 342.069 101.868 223.909 85.4285 85.4133C125.329 133.534 154.784 188.504 203.761 228.79C255.948 271.688 313.402 287.314 376.507 305.595C515.046 345.795 583.588 462.929 599.343 599.285C556.103 547.311 524.379 489 469.665 447.215Z" fill="#493228"/>
</g>
</g>
<defs>
<clipPath id="clip0">
<rect width="685" height="685" fill="white"/>
</clipPath>
</defs>
</svg>
