<svg width="232" height="46" viewBox="0 0 232 46" fill="none" xmlns="http://www.w3.org/2000/svg">
<path d="M16.4968 36.6429C17.761 36.6429 18.8888 36.426 19.8804 35.9922C20.8843 35.546 21.7333 34.9325 22.4274 34.1516C23.1215 33.3708 23.6482 32.4536 24.0077 31.4001C24.3795 30.3342 24.5654 29.1878 24.5654 27.9607V11.6933H26.4617V27.9607C26.4617 29.4109 26.2324 30.768 25.7738 32.0322C25.3153 33.2841 24.6522 34.3809 23.7846 35.3229C22.9294 36.2525 21.882 36.9837 20.6426 37.5167C19.4156 38.0496 18.0336 38.3161 16.4968 38.3161C14.9599 38.3161 13.5717 38.0496 12.3323 37.5167C11.1053 36.9837 10.0579 36.2525 9.19035 35.3229C8.33515 34.3809 7.67825 33.2841 7.21966 32.0322C6.76108 30.768 6.53178 29.4109 6.53178 27.9607V11.6933H8.44669V27.9421C8.44669 29.1692 8.62641 30.3156 8.98584 31.3815C9.35767 32.435 9.88443 33.3522 10.5661 34.1331C11.2602 34.9139 12.103 35.5274 13.0945 35.9736C14.0985 36.4198 15.2325 36.6429 16.4968 36.6429ZM34.2288 22.7366C35.084 21.6707 36.0694 20.8154 37.1849 20.1709C38.3127 19.5264 39.5646 19.2042 40.9403 19.2042C41.9566 19.2042 42.849 19.3653 43.6175 19.6876C44.3983 20.0098 45.0428 20.4746 45.551 21.0819C46.0591 21.6892 46.4434 22.4205 46.7036 23.2757C46.9639 24.1309 47.0941 25.0977 47.0941 26.176V38.0001H45.3093V26.176C45.3093 24.4408 44.9127 23.0836 44.1194 22.1045C43.3262 21.1129 42.1178 20.6171 40.4941 20.6171C39.2919 20.6171 38.164 20.927 37.1105 21.5467C36.0694 22.154 35.1398 23.003 34.3218 24.0937V38.0001H32.537V19.5017H33.5224C33.8322 19.5017 34.0119 19.6566 34.0615 19.9664L34.2288 22.7366ZM54.9509 19.5017V38.0001H53.1848V19.5017H54.9509ZM55.7132 13.1248C55.7132 13.3479 55.6636 13.5586 55.5645 13.7569C55.4777 13.9428 55.36 14.1102 55.2112 14.2589C55.0625 14.4076 54.889 14.5254 54.6907 14.6121C54.4924 14.6989 54.2817 14.7423 54.0586 14.7423C53.8355 14.7423 53.6248 14.6989 53.4264 14.6121C53.2281 14.5254 53.0546 14.4076 52.9059 14.2589C52.7572 14.1102 52.6394 13.9428 52.5527 13.7569C52.4659 13.5586 52.4225 13.3479 52.4225 13.1248C52.4225 12.9017 52.4659 12.691 52.5527 12.4927C52.6394 12.282 52.7572 12.1023 52.9059 11.9536C53.0546 11.8048 53.2281 11.6871 53.4264 11.6003C53.6248 11.5136 53.8355 11.4702 54.0586 11.4702C54.2817 11.4702 54.4924 11.5136 54.6907 11.6003C54.889 11.6871 55.0625 11.8048 55.2112 11.9536C55.36 12.1023 55.4777 12.282 55.5645 12.4927C55.6636 12.691 55.7132 12.9017 55.7132 13.1248ZM68.5842 19.2042C69.9104 19.2042 71.094 19.4335 72.1352 19.8921C73.1887 20.3383 74.0749 20.9766 74.7937 21.807C75.5126 22.6374 76.0579 23.6413 76.4298 24.8188C76.814 25.9838 77.0061 27.2914 77.0061 28.7416C77.0061 30.1917 76.814 31.4993 76.4298 32.6643C76.0579 33.8294 75.5126 34.8271 74.7937 35.6576C74.0749 36.488 73.1887 37.1263 72.1352 37.5725C71.094 38.0187 69.9104 38.2417 68.5842 38.2417C67.258 38.2417 66.0682 38.0187 65.0147 37.5725C63.9736 37.1263 63.0874 36.488 62.3561 35.6576C61.6372 34.8271 61.0857 33.8294 60.7015 32.6643C60.3297 31.4993 60.1437 30.1917 60.1437 28.7416C60.1437 27.2914 60.3297 25.9838 60.7015 24.8188C61.0857 23.6413 61.6372 22.6374 62.3561 21.807C63.0874 20.9766 63.9736 20.3383 65.0147 19.8921C66.0682 19.4335 67.258 19.2042 68.5842 19.2042ZM68.5842 36.8474C69.6873 36.8474 70.6479 36.6615 71.4659 36.2897C72.2963 35.9054 72.9842 35.3601 73.5295 34.6536C74.0873 33.9471 74.5025 33.0981 74.7751 32.1066C75.0478 31.1027 75.1841 29.981 75.1841 28.7416C75.1841 27.5145 75.0478 26.3991 74.7751 25.3951C74.5025 24.3912 74.0873 23.536 73.5295 22.8295C72.9842 22.1106 72.2963 21.5591 71.4659 21.1749C70.6479 20.7907 69.6873 20.5986 68.5842 20.5986C67.4811 20.5986 66.5144 20.7907 65.684 21.1749C64.8659 21.5591 64.1781 22.1106 63.6203 22.8295C63.075 23.536 62.6598 24.3912 62.3747 25.3951C62.102 26.3991 61.9657 27.5145 61.9657 28.7416C61.9657 29.981 62.102 31.1027 62.3747 32.1066C62.6598 33.0981 63.075 33.9471 63.6203 34.6536C64.1781 35.3601 64.8659 35.9054 65.684 36.2897C66.5144 36.6615 67.4811 36.8474 68.5842 36.8474ZM83.6848 22.7366C84.54 21.6707 85.5253 20.8154 86.6408 20.1709C87.7687 19.5264 89.0205 19.2042 90.3962 19.2042C91.4126 19.2042 92.3049 19.3653 93.0734 19.6876C93.8542 20.0098 94.4987 20.4746 95.0069 21.0819C95.5151 21.6892 95.8993 22.4205 96.1596 23.2757C96.4198 24.1309 96.55 25.0977 96.55 26.176V38.0001H94.7652V26.176C94.7652 24.4408 94.3686 23.0836 93.5754 22.1045C92.7821 21.1129 91.5737 20.6171 89.95 20.6171C88.7478 20.6171 87.6199 20.927 86.5664 21.5467C85.5253 22.154 84.5957 23.003 83.7777 24.0937V38.0001H81.9929V19.5017H82.9783C83.2881 19.5017 83.4679 19.6566 83.5174 19.9664L83.6848 22.7366ZM130.839 32.2739C131.062 32.2739 131.254 32.3607 131.415 32.5342L132.977 34.2446C131.886 35.5336 130.553 36.5313 128.979 37.2378C127.418 37.9443 125.534 38.2975 123.328 38.2975C121.394 38.2975 119.64 37.9629 118.066 37.2936C116.505 36.6243 115.166 35.6885 114.051 34.4863C112.947 33.2841 112.092 31.8463 111.485 30.1731C110.878 28.4999 110.574 26.6593 110.574 24.6515C110.574 22.6436 110.89 20.8031 111.522 19.1298C112.167 17.4566 113.065 16.0189 114.218 14.8166C115.371 13.6144 116.746 12.6786 118.345 12.0093C119.956 11.3401 121.735 11.0054 123.681 11.0054C125.577 11.0054 127.263 11.3153 128.738 11.935C130.213 12.5547 131.495 13.3789 132.586 14.4076L131.285 16.2482C131.198 16.3845 131.086 16.4961 130.95 16.5828C130.826 16.6696 130.659 16.713 130.448 16.713C130.213 16.713 129.934 16.5952 129.611 16.3597C129.302 16.1242 128.886 15.864 128.366 15.5789C127.858 15.2814 127.226 15.0149 126.47 14.7795C125.714 14.544 124.772 14.4262 123.644 14.4262C122.317 14.4262 121.103 14.6617 120 15.1327C118.897 15.5913 117.942 16.2606 117.137 17.1406C116.343 18.0082 115.724 19.0803 115.278 20.3569C114.844 21.6211 114.627 23.0526 114.627 24.6515C114.627 26.2751 114.856 27.719 115.315 28.9833C115.773 30.2475 116.405 31.3196 117.211 32.1996C118.017 33.0795 118.965 33.7488 120.056 34.2074C121.146 34.666 122.324 34.8953 123.588 34.8953C124.356 34.8953 125.044 34.8519 125.652 34.7652C126.271 34.666 126.835 34.5235 127.343 34.3376C127.864 34.1517 128.353 33.9162 128.812 33.6311C129.271 33.3336 129.723 32.9804 130.169 32.5714C130.268 32.4846 130.374 32.4165 130.485 32.3669C130.597 32.3049 130.715 32.2739 130.839 32.2739ZM143.899 18.8138C145.287 18.8138 146.539 19.0431 147.654 19.5017C148.782 19.9479 149.737 20.5986 150.517 21.4538C151.311 22.2966 151.918 23.3191 152.339 24.5213C152.761 25.7112 152.972 27.0498 152.972 28.5371C152.972 30.0244 152.761 31.3691 152.339 32.5714C151.918 33.7736 151.311 34.7962 150.517 35.639C149.737 36.4818 148.782 37.1325 147.654 37.5911C146.539 38.0372 145.287 38.2603 143.899 38.2603C142.498 38.2603 141.234 38.0372 140.106 37.5911C138.991 37.1325 138.036 36.4818 137.243 35.639C136.45 34.7962 135.837 33.7736 135.403 32.5714C134.981 31.3691 134.771 30.0244 134.771 28.5371C134.771 27.0498 134.981 25.7112 135.403 24.5213C135.837 23.3191 136.45 22.2966 137.243 21.4538C138.036 20.5986 138.991 19.9479 140.106 19.5017C141.234 19.0431 142.498 18.8138 143.899 18.8138ZM143.899 35.4345C145.684 35.4345 147.016 34.8333 147.896 33.6311C148.776 32.4289 149.216 30.737 149.216 28.5557C149.216 26.3743 148.776 24.6825 147.896 23.4802C147.016 22.2656 145.684 21.6583 143.899 21.6583C142.089 21.6583 140.738 22.2656 139.846 23.4802C138.966 24.6825 138.526 26.3743 138.526 28.5557C138.526 30.737 138.966 32.4289 139.846 33.6311C140.738 34.8333 142.089 35.4345 143.899 35.4345ZM157.828 38.0001V22.0859L155.858 21.8442C155.572 21.7822 155.337 21.683 155.151 21.5467C154.978 21.398 154.891 21.1873 154.891 20.9146V19.4087H157.828V17.9958C157.828 16.9175 157.983 15.9569 158.293 15.1141C158.603 14.2713 159.043 13.5586 159.613 12.9761C160.196 12.3812 160.89 11.935 161.695 11.6375C162.513 11.3277 163.43 11.1727 164.447 11.1727C165.302 11.1727 166.089 11.2967 166.808 11.5446L166.733 13.3851C166.721 13.5338 166.672 13.6516 166.585 13.7383C166.498 13.8127 166.38 13.8685 166.232 13.9057C166.095 13.9428 165.922 13.9676 165.711 13.98C165.513 13.98 165.296 13.98 165.06 13.98C164.503 13.98 163.994 14.0482 163.536 14.1845C163.077 14.3209 162.687 14.5502 162.365 14.8724C162.042 15.1947 161.794 15.6223 161.621 16.1552C161.447 16.6758 161.361 17.3265 161.361 18.1073V19.4087H169.615V17.4752C169.615 16.3969 169.77 15.4363 170.08 14.5935C170.39 13.7507 170.83 13.0381 171.4 12.4555C171.982 11.8606 172.683 11.4144 173.501 11.117C174.319 10.8071 175.236 10.6522 176.252 10.6522C177.083 10.6522 177.87 10.7761 178.613 11.024L178.52 12.846C178.508 13.0071 178.458 13.131 178.372 13.2178C178.297 13.2921 178.186 13.3479 178.037 13.3851C177.888 13.4223 177.715 13.4471 177.516 13.4595C177.318 13.4595 177.095 13.4595 176.847 13.4595C176.289 13.4595 175.781 13.5276 175.323 13.664C174.864 13.8003 174.474 14.0296 174.151 14.3519C173.829 14.6741 173.581 15.1017 173.408 15.6347C173.234 16.1552 173.148 16.8059 173.148 17.5868V19.4087H178.446V22.0487H173.259V38.0001H169.615V22.0487H161.472V38.0001H157.828ZM193.423 26.4548C193.423 25.736 193.318 25.0729 193.107 24.4656C192.909 23.8582 192.611 23.3315 192.215 22.8853C191.818 22.4391 191.335 22.0921 190.765 21.8442C190.194 21.5963 189.538 21.4723 188.794 21.4723C187.269 21.4723 186.067 21.9123 185.187 22.7923C184.32 23.6723 183.768 24.8932 183.533 26.4548H193.423ZM196.416 35.3043C195.97 35.8249 195.456 36.2773 194.873 36.6615C194.291 37.0333 193.671 37.337 193.014 37.5725C192.357 37.808 191.676 37.9815 190.969 38.093C190.275 38.2046 189.587 38.2603 188.905 38.2603C187.604 38.2603 186.396 38.0434 185.28 37.6096C184.177 37.1634 183.216 36.5189 182.398 35.6761C181.593 34.8209 180.961 33.7674 180.502 32.5156C180.056 31.2514 179.833 29.8013 179.833 28.1652C179.833 26.8514 180.037 25.6306 180.446 24.5027C180.855 23.3625 181.438 22.3709 182.194 21.5281C182.962 20.6853 183.898 20.0222 185.001 19.5388C186.104 19.0555 187.344 18.8138 188.72 18.8138C189.872 18.8138 190.932 19.0059 191.899 19.3901C192.878 19.7619 193.721 20.3073 194.427 21.0262C195.134 21.745 195.685 22.6312 196.082 23.6847C196.491 24.7382 196.695 25.9405 196.695 27.2914C196.695 27.8492 196.633 28.2272 196.509 28.4255C196.385 28.6114 196.156 28.7044 195.821 28.7044H183.44C183.477 29.8323 183.638 30.8176 183.923 31.6604C184.208 32.4908 184.598 33.1849 185.094 33.7426C185.602 34.3004 186.203 34.7156 186.898 34.9883C187.592 35.2609 188.366 35.3973 189.221 35.3973C190.027 35.3973 190.721 35.3043 191.304 35.1184C191.899 34.9325 192.407 34.7342 192.828 34.5235C193.262 34.3004 193.621 34.0959 193.907 33.91C194.204 33.724 194.464 33.6311 194.687 33.6311C194.985 33.6311 195.214 33.7426 195.375 33.9657L196.416 35.3043ZM213.104 26.4548C213.104 25.736 212.998 25.0729 212.788 24.4656C212.589 23.8582 212.292 23.3315 211.895 22.8853C211.499 22.4391 211.015 22.0921 210.445 21.8442C209.875 21.5963 209.218 21.4723 208.475 21.4723C206.95 21.4723 205.748 21.9123 204.868 22.7923C204 23.6723 203.449 24.8932 203.213 26.4548H213.104ZM216.097 35.3043C215.651 35.8249 215.136 36.2773 214.554 36.6615C213.971 37.0333 213.352 37.337 212.695 37.5725C212.038 37.808 211.356 37.9815 210.65 38.093C209.956 38.2046 209.268 38.2603 208.586 38.2603C207.285 38.2603 206.076 38.0434 204.961 37.6096C203.858 37.1634 202.897 36.5189 202.079 35.6761C201.274 34.8209 200.641 33.7674 200.183 32.5156C199.737 31.2514 199.514 29.8013 199.514 28.1652C199.514 26.8514 199.718 25.6306 200.127 24.5027C200.536 23.3625 201.119 22.3709 201.875 21.5281C202.643 20.6853 203.579 20.0222 204.682 19.5388C205.785 19.0555 207.024 18.8138 208.4 18.8138C209.553 18.8138 210.613 19.0059 211.579 19.3901C212.558 19.7619 213.401 20.3073 214.108 21.0262C214.814 21.745 215.366 22.6312 215.762 23.6847C216.171 24.7382 216.376 25.9405 216.376 27.2914C216.376 27.8492 216.314 28.2272 216.19 28.4255C216.066 28.6114 215.837 28.7044 215.502 28.7044H203.12C203.157 29.8323 203.319 30.8176 203.604 31.6604C203.889 32.4908 204.279 33.1849 204.775 33.7426C205.283 34.3004 205.884 34.7156 206.578 34.9883C207.272 35.2609 208.047 35.3973 208.902 35.3973C209.708 35.3973 210.402 35.3043 210.984 35.1184C211.579 34.9325 212.088 34.7342 212.509 34.5235C212.943 34.3004 213.302 34.0959 213.587 33.91C213.885 33.724 214.145 33.6311 214.368 33.6311C214.666 33.6311 214.895 33.7426 215.056 33.9657L216.097 35.3043Z" fill="white"/>
<path d="M6.79645 18.9497C-0.932209 18.9497 -0.932209 28.6105 6.79645 28.6105" stroke="#E5E5E5" stroke-width="1.56522"/>
<path d="M12.8283 0.999939C12.501 1.82814 12.1027 3.81563 13.1272 5.14C14.4079 6.79547 13.1597 9.19453 12.2155 9.9802" stroke="#E4D9D5" stroke-width="1.35251"/>
<path d="M19.9857 1.68828C19.7288 2.27896 19.396 3.6873 20.1196 4.59528C21.024 5.73026 20.06 7.44837 19.3519 8.02368" stroke="#E4D9D5" stroke-width="1.30421"/>
</svg>
